<svg width="29" height="29" viewBox="0 0 29 29" fill="none" xmlns="http://www.w3.org/2000/svg">
<path d="M14.5 28.5C22.5081 28.5 29 22.1201 29 14.25C29 6.37994 22.5081 0 14.5 0C6.49187 0 0 6.37994 0 14.25C0 22.1201 6.49187 28.5 14.5 28.5Z" fill="#BFFCFF"/>
<path d="M19.8785 8.55664C19.3183 8.57607 18.791 8.8222 18.4285 9.23027L12.8856 15.3254L10.4997 13.1879C9.27377 11.9248 6.94718 12.8899 6.9999 14.6258C6.9999 15.1635 7.21081 15.6752 7.61286 16.0703L11.0138 19.2441C12.0354 20.2352 13.8281 20.1769 14.7706 19.1146L21.4735 11.9183C22.6863 10.6941 21.6251 8.44652 19.8785 8.55664Z" fill="#3BFFEE"/>
</svg>
