<svg width="20" height="20" viewBox="0 0 20 20" fill="none" xmlns="http://www.w3.org/2000/svg">
<g clip-path="url(#clip0_301_284)">
<path d="M10.0003 10.6667C10.4618 10.6667 10.9129 10.5298 11.2967 10.2734C11.6804 10.017 11.9794 9.65262 12.156 9.22626C12.3326 8.7999 12.3789 8.33075 12.2888 7.87812C12.1988 7.4255 11.9766 7.00974 11.6502 6.68342C11.3239 6.3571 10.9082 6.13487 10.4555 6.04484C10.0029 5.9548 9.53376 6.00101 9.1074 6.17762C8.68104 6.35422 8.31662 6.65329 8.06023 7.037C7.80384 7.42072 7.66699 7.87184 7.66699 8.33333C7.66779 8.95193 7.91387 9.54496 8.35129 9.98237C8.7887 10.4198 9.38173 10.6659 10.0003 10.6667ZM10.0003 6.66667C10.33 6.66667 10.6522 6.76442 10.9263 6.94755C11.2004 7.13069 11.414 7.39099 11.5401 7.69553C11.6663 8.00007 11.6993 8.33518 11.635 8.65849C11.5707 8.98179 11.4119 9.27876 11.1788 9.51185C10.9457 9.74493 10.6488 9.90367 10.3255 9.96798C10.0022 10.0323 9.66706 9.99928 9.36252 9.87313C9.05798 9.74699 8.79768 9.53337 8.61454 9.25928C8.43141 8.9852 8.33366 8.66297 8.33366 8.33333C8.33419 7.89147 8.50995 7.46785 8.8224 7.15541C9.13484 6.84296 9.55846 6.6672 10.0003 6.66667Z" fill="#B4B4B4"/>
<path d="M2.42154 19.4839C2.45968 19.6219 2.53913 19.745 2.64924 19.8367C2.75934 19.9283 2.89483 19.9841 3.03754 19.9965C3.05969 19.9988 3.08194 19.9999 3.1042 19.9999C3.23622 20 3.3656 19.963 3.47759 19.8931C3.58958 19.8232 3.67966 19.7232 3.73754 19.6045C4.26161 18.4524 5.06837 17.4514 6.08287 16.6945C6.20862 16.8249 6.36754 16.9186 6.54254 16.9655L6.81854 17.8175C6.89628 18.0643 7.05086 18.2798 7.25972 18.4325C7.46859 18.5853 7.72079 18.6672 7.97954 18.6665H8.9832C9.18854 19.4295 9.50954 19.9999 9.99954 19.9999C10.4895 19.9999 10.8105 19.4295 11.0159 18.6665H12.0195C12.278 18.6674 12.5299 18.5857 12.7386 18.4333C12.9474 18.281 13.1019 18.0659 13.1799 17.8195L13.4565 16.9655C13.6314 16.9185 13.7902 16.8249 13.9159 16.6945C14.9306 17.4513 15.7375 18.4523 16.2615 19.6045C16.3194 19.7232 16.4096 19.8232 16.5216 19.8931C16.6337 19.9631 16.7631 20 16.8952 19.9999C16.9175 19.9999 16.9397 19.9988 16.9619 19.9965C17.1045 19.9841 17.2399 19.9284 17.35 19.8369C17.4601 19.7454 17.5396 19.6224 17.5779 19.4845C18.0659 17.7775 18.7962 13.6639 15.2819 11.8149C15.3125 11.4192 15.3332 11.0199 15.3332 10.6169C15.3577 8.6323 14.9402 6.66717 14.111 4.86397C13.2818 3.06078 12.0617 1.46471 10.5392 0.191519C10.3871 0.0670364 10.1966 -0.000976563 10 -0.000976562C9.80348 -0.000976563 9.61298 0.0670364 9.46087 0.191519C7.93822 1.46463 6.718 3.06067 5.8887 4.86387C5.05939 6.66707 4.6418 8.63224 4.6662 10.6169C4.6662 11.0199 4.68687 11.4192 4.71754 11.8149C1.2032 13.6639 1.93287 17.7775 2.42154 19.4839ZM7.97954 17.9999C7.8621 18.0001 7.74767 17.9628 7.65297 17.8933C7.55827 17.8239 7.48827 17.7259 7.4532 17.6139L7.25454 16.9999H8.71554C8.74287 17.3332 8.7822 17.6725 8.83954 17.9999H7.97954ZM9.99954 19.3255C9.78787 19.1789 9.33287 18.0465 9.33287 15.8332C9.33287 13.6199 9.78787 12.4875 9.99954 12.3409C10.2112 12.4875 10.6662 13.6199 10.6662 15.8332C10.6662 18.0465 10.2112 19.1789 9.99954 19.3255ZM12.0195 17.9999H11.1595C11.2155 17.6725 11.2562 17.3332 11.2835 16.9999H12.7445L12.5445 17.6159C12.5093 17.7274 12.4394 17.8248 12.345 17.8939C12.2506 17.963 12.1365 18.0001 12.0195 17.9999ZM16.9365 19.3022C16.935 19.3109 16.9305 19.3188 16.9237 19.3245C16.9169 19.3301 16.9084 19.3332 16.8995 19.3332C16.8952 19.3344 16.8907 19.3348 16.8862 19.3342C16.8817 19.3337 16.8774 19.3322 16.8735 19.3299C16.8696 19.3277 16.8662 19.3246 16.8635 19.321C16.8608 19.3174 16.8589 19.3132 16.8579 19.3089C16.277 18.0364 15.3773 16.9356 14.2459 16.1132C14.7383 14.9744 15.0622 13.77 15.2075 12.5379C17.9165 14.1549 17.4705 17.4332 16.9365 19.3022ZM9.8792 0.709852C9.91331 0.681991 9.956 0.666772 10 0.666772C10.0441 0.666772 10.0868 0.681991 10.1209 0.709852C11.1367 1.54879 12.0093 2.54739 12.7045 3.66652H7.29454C7.99012 2.54736 8.86306 1.54878 9.8792 0.709852ZM6.90354 4.33319H13.0955C14.1434 6.26071 14.6838 8.42301 14.6662 10.6169C14.6932 12.5187 14.2976 14.4028 13.5079 16.1332C13.4809 16.1917 13.4379 16.2415 13.384 16.2769C13.3301 16.3122 13.2673 16.3318 13.2029 16.3332H11.3229C11.3292 16.1589 11.3329 15.9895 11.3329 15.8332C11.3329 14.2855 11.0519 11.6665 9.99954 11.6665C8.9472 11.6665 8.6662 14.2855 8.6662 15.8332C8.6662 15.9895 8.66987 16.1589 8.6762 16.3332H6.7962C6.73233 16.332 6.67005 16.313 6.6164 16.2783C6.56274 16.2436 6.51985 16.1946 6.49254 16.1369C5.70188 14.4055 5.30578 12.52 5.33287 10.6169C5.31524 8.42301 5.85573 6.26071 6.90354 4.33319ZM4.79087 12.5375C4.9364 13.7696 5.26034 14.974 5.75254 16.1129C4.62111 16.9353 3.72137 18.0361 3.14054 19.3085C3.13554 19.3179 3.13154 19.3399 3.09887 19.3329C3.09005 19.3327 3.08156 19.3295 3.07491 19.3237C3.06826 19.3179 3.06388 19.3099 3.06254 19.3012C2.52854 17.4332 2.08254 14.1549 4.79087 12.5375Z" fill="#B4B4B4"/>
</g>
<defs>
<clipPath id="clip0_301_284">
<rect width="20" height="20" fill="white"/>
</clipPath>
</defs>
</svg>
